<svg xmlns="http://www.w3.org/2000/svg" xmlns:xlink="http://www.w3.org/1999/xlink" width="48" height="48" viewBox="0 0 48 48"><defs><linearGradient id="b" x1="868.253" x2="937.656" y1="521.354" y2="588.736" gradientTransform="matrix(1.53785 0 0 1.53785 -1326.968 211.343)" gradientUnits="userSpaceOnUse" xlink:href="#a"/><linearGradient id="a"><stop offset="0" stop-color="#24f3d2"/><stop offset=".394" stop-color="#0674f0"/><stop offset=".507" stop-color="#6961b5"/><stop offset=".813" stop-color="#f34660"/><stop offset="1" stop-color="#ee078d"/></linearGradient></defs><g transform="translate(0 -1004.362)"><rect width="48" height="48" y="1004.362" fill="url(#b)" rx="10.144" ry="10.144"/><path fill="#fff" style="line-height:normal;text-indent:0;text-align:start;text-decoration-line:none;text-decoration-style:solid;text-decoration-color:#000;text-transform:none;block-progression:tb;isolation:auto;mix-blend-mode:normal" d="m 32.935545,1019.1064 0,0 0,1 c 0.348985,0 0.852125,-2e-4 1.208985,0.088 0.17843,0.045 0.308,0.1126 0.369141,0.17 0.06114,0.057 0.08594,0.088 0.08594,0.2285 l 0,5.0019 c 0,0.3448 0.152425,0.577 0.308594,0.8008 0.156168,0.2239 0.343562,0.4334 0.523437,0.6289 0.179876,0.1956 0.352581,0.3766 0.466797,0.5117 0.01012,0.012 0.01042,0.014 0.01953,0.025 -0.114505,0.1168 -0.294144,0.2799 -0.482422,0.4668 -0.378104,0.3753 -0.857421,0.8547 -0.857421,1.5625 l 0,5.0313 c 0,0.1403 -0.02525,0.1662 -0.105469,0.2324 -0.08021,0.066 -0.241741,0.1384 -0.441406,0.1816 -0.399331,0.087 -0.862282,0.065 -1.095704,0.065 l 0,1 c 0.113073,0 0.72106,0.039 1.306641,-0.088 0.292791,-0.063 0.599716,-0.1659 0.867188,-0.3867 0.267471,-0.2209 0.46875,-0.5923 0.46875,-1.0039 l 0,-5.0313 c 0,-0.1644 0.229682,-0.5232 0.5625,-0.8535 0.166408,-0.1652 0.341983,-0.3211 0.49414,-0.4766 0.07608,-0.078 0.146292,-0.1547 0.212891,-0.25 0.0666,-0.095 0.152344,-0.2116 0.152344,-0.4316 0,-0.2173 -0.0743,-0.3222 -0.134766,-0.4199 -0.06047,-0.098 -0.128978,-0.1818 -0.203125,-0.2695 -0.148294,-0.1753 -0.324003,-0.3581 -0.494141,-0.543 -0.170137,-0.185 -0.333112,-0.373 -0.439453,-0.5254 -0.10634,-0.1524 -0.128906,-0.2756 -0.128906,-0.2285 l 0,-5.002 c 0,-0.38 -0.162359,-0.7317 -0.402344,-0.957 -0.239985,-0.2253 -0.52573,-0.3391 -0.804687,-0.4102 -0.557917,-0.1421 -1.135386,-0.1191 -1.457034,-0.1191 z m -17.871093,0 c -0.321646,0 -0.899117,-0.023 -1.457031,0.1191 -0.278957,0.071 -0.566656,0.1849 -0.806641,0.4102 -0.239985,0.2253 -0.400391,0.577 -0.400391,0.957 l 0,5.0019 c 0,-0.047 -0.02257,0.076 -0.128906,0.2286 -0.10634,0.1524 -0.269316,0.3403 -0.439453,0.5253 -0.170137,0.1849 -0.3478,0.3677 -0.496094,0.543 -0.07415,0.088 -0.140703,0.1718 -0.201172,0.2695 -0.06047,0.098 -0.134765,0.2027 -0.134765,0.42 0,0.22 0.08379,0.3364 0.15039,0.4316 0.0666,0.095 0.138766,0.1723 0.214844,0.25 0.152157,0.1555 0.325779,0.3114 0.492188,0.4766 0.332817,0.3303 0.564453,0.6891 0.564453,0.8535 l 0,5.0312 c 0,0.4116 0.199325,0.783 0.466797,1.0039 0.267472,0.2208 0.57635,0.3233 0.86914,0.3868 0.585582,0.1269 1.193569,0.088 1.306641,0.088 l 0,-1 c -0.233421,0 -0.696373,0.022 -1.095703,-0.064 -0.199665,-0.043 -0.363145,-0.1154 -0.44336,-0.1816 -0.08021,-0.066 -0.103515,-0.092 -0.103515,-0.2325 l 0,-5.0312 c 0,-0.7078 -0.481271,-1.1872 -0.859375,-1.5625 -0.189052,-0.1876 -0.367983,-0.3519 -0.482422,-0.4688 0.0087,-0.011 0.0099,-0.014 0.01953,-0.025 0.114216,-0.1351 0.288875,-0.3161 0.46875,-0.5117 0.179875,-0.1955 0.367269,-0.405 0.523438,-0.6289 0.156168,-0.2238 0.308593,-0.456 0.308593,-0.8008 l 0,-5.0019 c 0,-0.1409 0.0248,-0.1711 0.08594,-0.2285 0.06114,-0.057 0.188758,-0.1246 0.367188,-0.17 0.35686,-0.091 0.861954,-0.088 1.210937,-0.088 l 0,-1 z m 12.34375,0.021 c -0.333908,0.054 -0.646763,0.2347 -0.857422,0.5274 l -1.501953,2.084 0.01953,0.014 -7.234375,9.9981 -0.90625,5.6113 5.033203,-2.6426 7.207031,-10.0136 0.002,0 0.310546,-0.4336 1.189454,-1.6524 c 0.421247,-0.5854 0.286464,-1.4166 -0.298874,-1.8379 l -1.982421,-1.4277 c -0.292674,-0.2107 -0.646562,-0.281 -0.980469,-0.2266 z m 0.158203,0.9785 c 0.07864,-0.013 0.163392,0.01 0.238281,0.061 l 1.982422,1.4258 c 0.149789,0.1078 0.180092,0.2934 0.07227,0.4433 l -1.19336,1.6582 -2.511719,-1.7793 1.207032,-1.6757 c 0.0539,-0.075 0.126436,-0.1201 0.205078,-0.1329 z m -1.978516,2.6348 2.492188,1.7656 -6.335938,8.8028 -2.501953,-1.8008 6.345703,-8.7676 z m -6.84375,9.6426 2.326172,1.6738 -2.835937,1.4883 0.509765,-3.1621 z" color="#000" font-family="sans-serif" font-weight="400" overflow="visible" white-space="normal"/></g></svg>