<svg xmlns="http://www.w3.org/2000/svg" viewBox="0 0 24 24"><g transform="matrix(3.77953 0 0 3.77953 77 29.48)"><path fill="#e77f1c" d="m -14.816667,-5.4187636 v 2.38125 c 2e-6,0.2922494 -0.236911,0.5291663 -0.52916,0.52917 h -3.70417 c -0.292253,1.8e-6 -0.529172,-0.2369167 -0.52917,-0.52917 v -2.9104238 -0.2645762 c 0,-0.2922533 0.236917,-0.52917 0.52917,-0.52917 h 1.132415 c 0.228199,-2.078e-4 0.430828,0.1458978 0.50271,0.36248 l 0.14287,0.43127 h 1.926175 c 0.292249,0 0.529162,0.2369206 0.52916,0.52917 z"/><path fill="#f39d0a" d="m -14.816667,-5.4187636 v 2.38125 c 2e-6,0.2922494 -0.236911,0.5291663 -0.52916,0.52917 h -3.70417 c -0.292253,1.8e-6 -0.52917,-0.2369167 -0.52917,-0.52917 v -2.9104238 l 2.57175,3.8e-6 h 1.66159 c 0.292249,0 0.529162,0.2369206 0.52916,0.52917 z"/></g></svg>